<svg width="90" height="99" viewBox="0 0 90 99" fill="none" xmlns="http://www.w3.org/2000/svg">
<path d="M58.79 97.0262L85.95 83.4725C87.205 82.8465 88.216 81.87 88.8399 80.6813C89.4639 79.4925 89.6692 78.1518 89.4267 76.8487C82.0433 37.2023 77.0933 15.2274 74.57 10.9117C72.46 7.30743 60.4833 27.8345 54.9633 67.9109C54.1333 73.9437 54.5967 83.2621 56.3467 95.8629C56.3814 96.1117 56.4807 96.3489 56.6361 96.554C56.7916 96.7592 56.9984 96.9262 57.2389 97.0407C57.4793 97.1552 57.7461 97.2137 58.0164 97.2111C58.2866 97.2086 58.5521 97.1451 58.79 97.0262Z" fill="#DF4D54"/>
<mask id="mask0_2304_813" style="mask-type:luminance" maskUnits="userSpaceOnUse" x="54" y="10" width="36" height="88">
<path d="M58.79 97.0262L85.95 83.4725C87.205 82.8465 88.216 81.87 88.8399 80.6813C89.4639 79.4925 89.6692 78.1518 89.4267 76.8487C82.0433 37.2023 77.0933 15.2274 74.57 10.9117C72.46 7.30743 60.4833 27.8345 54.9633 67.9109C54.1333 73.9437 54.5967 83.2621 56.3467 95.8629C56.3814 96.1117 56.4807 96.3489 56.6361 96.554C56.7916 96.7592 56.9984 96.9262 57.2389 97.0407C57.4793 97.1552 57.7461 97.2137 58.0164 97.2111C58.2866 97.2086 58.5521 97.1451 58.79 97.0262Z" fill="#CD2028"/>
</mask>
<g mask="url(#mask0_2304_813)">
<path fill-rule="evenodd" clip-rule="evenodd" d="M76.6667 76.4312L100 82.6187L53.3333 101.181L76.6667 76.4312Z" fill="#CD2028"/>
</g>
<mask id="mask1_2304_813" style="mask-type:luminance" maskUnits="userSpaceOnUse" x="54" y="10" width="36" height="88">
<path d="M58.79 97.0262L85.95 83.4725C87.205 82.8465 88.216 81.87 88.8399 80.6813C89.4639 79.4925 89.6692 78.1518 89.4267 76.8487C82.0433 37.2023 77.0933 15.2274 74.57 10.9117C72.46 7.30743 60.4833 27.8345 54.9633 67.9109C54.1333 73.9437 54.5967 83.2621 56.3467 95.8629C56.3814 96.1117 56.4807 96.3489 56.6361 96.554C56.7916 96.7592 56.9984 96.9262 57.2389 97.0407C57.4793 97.1552 57.7461 97.2137 58.0164 97.2111C58.2866 97.2086 58.5521 97.1451 58.79 97.0262Z" fill="#B20C14"/>
</mask>
<g mask="url(#mask1_2304_813)">
<path fill-rule="evenodd" clip-rule="evenodd" d="M76.6667 76.431L70 11.4623L56.6667 98.0873L76.6667 76.431Z" fill="#B20C14"/>
</g>
<path fill-rule="evenodd" clip-rule="evenodd" d="M11.3101 10.5095C0.470073 58.7194 -2.57659 83.949 2.16674 86.1826C9.28341 89.5332 59.0767 102.935 59.0767 96.2373C59.0767 91.7669 62.6334 63.8427 69.7467 12.4617L11.3134 10.5095H11.3101Z" fill="#CD2028"/>
<path d="M50.3334 43.4301C49.3567 46.1247 48.0167 50.0197 46.0967 56.8941L44.8634 61.4295C44.71 62.0018 44.5534 62.5835 44.3967 63.1867C43.8767 65.1853 42.93 68.2822 42.62 69.4083C42.15 71.1872 41.6034 72.2267 39.5034 72.7774C39.5034 72.7774 38.41 73.096 37.09 72.929C34.2434 72.567 34.1067 70.5994 33.6334 69.0123C32.9134 66.5806 32.1434 60.6344 32.0467 57.1818C32.0367 56.8281 32.0278 56.4744 32.02 56.1206L32 55.7741C32.0033 55.6689 31.991 55.5638 31.9634 55.4617C31.93 55.3534 31.85 55.3162 31.7134 55.3472C31.58 55.3781 31.48 55.5081 31.2667 56.0031C30.9167 56.9776 30.26 58.8586 29.7567 60.5385C28.88 63.3631 27.8567 66.6177 27.4034 68.4523L25.8767 73.6158C25.4767 75.1596 23.6734 76.1372 22.48 76.4063C21.18 76.6972 20.4234 76.7497 19.4367 76.5332C18.11 76.2455 17.3434 74.8007 16.9534 73.5013C16.5641 72.286 16.3029 71.0386 16.1734 69.7764C15.87 66.4878 15.74 64.1798 15.84 60.8541C15.96 57.0085 16.3967 51.3779 16.6834 48.2563L16.8367 45.1471C16.84 43.9962 16.7634 43.2785 16.5967 42.7649C16.4567 42.3256 16.2767 42.0812 15.93 41.6481C15.81 41.4996 15.69 41.4006 15.6567 41.3016C15.4567 40.6271 17.1734 39.4051 19.47 38.9565C20.8967 38.6781 22.1367 38.6162 23.15 39.3865C23.7967 40.0177 23.8967 40.6333 23.86 41.911C23.8434 42.3411 23.78 42.9753 23.7167 43.5817C23.5367 45.5864 22.94 49.0885 22.76 51.0933C22.45 53.8715 22.13 56.9776 22.05 59.8362C22.0134 61.2377 21.9934 63.8983 22.1167 64.316C22.1834 64.5232 22.2934 64.6656 22.4934 64.6191C22.6934 64.5696 22.7967 64.4335 23.0934 63.7467C23.18 63.4683 23.26 63.1837 23.3434 62.9052L23.5934 62.0606C23.5934 62.0606 24.9434 58.0016 26.0867 54.6851C27.3067 51.4831 28.5334 48.1852 29.3434 46.3258C30.5434 43.5878 31.1567 41.5769 33.2334 41.1221C35.3167 40.6704 37.2234 41.4593 37.6167 42.7835C37.8167 43.4672 37.8267 43.8972 37.7367 46.5733C37.5867 51.2511 37.9367 54.9512 38.0667 58.5183C38.17 60.0713 38.3134 61.2779 38.4867 61.8595C38.5667 62.1287 38.7334 62.206 38.8667 62.1813C39.1334 62.1287 39.22 61.9431 39.3867 61.2934C39.46 60.9809 39.53 60.6653 39.6067 60.3529L41.0734 54.088C42.21 49.5093 43.0067 46.8053 44.4034 42.5638C46.0667 37.5272 47.2934 35.2409 49.38 34.8449C51.3467 34.4706 52.4534 35.8658 52.56 37.2426C52.6 37.7128 52.35 38.7337 51.9334 39.4793L50.3334 43.4301Z" fill="white"/>
<path fill-rule="evenodd" clip-rule="evenodd" d="M13.9999 0.566169L67.0999 5.81626C69.7259 6.07596 72.1339 7.29107 73.7965 9.1954C75.459 11.0997 76.2406 13.538 75.9699 15.9761C75.8356 17.1806 75.4465 18.3486 74.825 19.4133C74.2034 20.478 73.3616 21.4183 72.3478 22.1805C71.334 22.9427 70.1681 23.5117 68.9169 23.8549C67.6658 24.1982 66.3539 24.3089 65.0566 24.1808L11.9533 18.9338C9.32789 18.6733 6.92071 17.4579 5.25885 15.5536C3.59699 13.6494 2.81589 11.2115 3.08659 8.77389C3.22051 7.56915 3.60929 6.40078 4.23067 5.33577C4.85204 4.27076 5.69377 3.33004 6.70762 2.56754C7.72147 1.80504 8.8875 1.23576 10.1389 0.892323C11.3902 0.548886 12.7023 0.43805 13.9999 0.566169Z" fill="#CD2028"/>
</svg>
