<svg width="87" height="94" viewBox="0 0 87 94" fill="none" xmlns="http://www.w3.org/2000/svg">
<path fill-rule="evenodd" clip-rule="evenodd" d="M58.8957 54.4221C72.647 59.643 83.118 71.5771 86.0898 86.1863C86.2845 87.1423 86.2483 88.1264 85.984 89.0679C85.7196 90.0095 85.2336 90.8851 84.5608 91.6321C83.8879 92.379 83.045 92.9787 82.0925 93.3881C81.1399 93.7975 80.1014 94.0065 79.0514 94H7.94863C6.89821 94.0093 5.85867 93.8023 4.90511 93.394C3.95154 92.9857 3.10775 92.3863 2.4347 91.639C1.76165 90.8918 1.27613 90.0153 1.01323 89.073C0.750318 88.1307 0.716581 87.146 0.914454 86.1902C3.51845 73.5393 11.6982 62.9017 22.7441 56.9131C24.5153 55.9535 26.2865 55.1388 28.1635 54.4221C32.663 57.3532 38.0293 58.9262 43.5296 58.9262C49.0299 58.9262 54.3962 57.3532 58.8957 54.4221ZM43.5 1.79791e-05C49.2575 1.79791e-05 54.5459 1.64893 58.8873 4.51202C62.3925 6.78907 65.2517 9.81741 67.2214 13.3391C69.191 16.8607 70.2127 20.7713 70.1995 24.7377C70.1931 29.2731 68.842 33.7198 66.2937 37.5921C63.7453 41.4645 60.0977 44.6138 55.749 46.696C51.4003 48.7783 46.5177 49.7136 41.6343 49.3997C36.751 49.0859 32.0545 47.535 28.0578 44.9163C27.17 44.2858 26.2781 43.6552 25.4369 42.9267C21.4749 39.5594 18.7036 35.1615 17.4864 30.3095C16.2691 25.4576 16.6628 20.378 18.6157 15.7369C20.5686 11.0959 23.9897 7.1099 28.4302 4.30166C32.8708 1.49343 38.1236 -0.0059891 43.5 1.79791e-05Z" fill="#CD2028"/>
</svg>
